<svg version="1.1" xmlns="http://www.w3.org/2000/svg" xmlns:xlink="http://www.w3.org/1999/xlink" width="62.46827" height="34" viewBox="0,0,62.46827,34"><defs><linearGradient x1="218.2" y1="175.7" x2="218.2" y2="181.5" gradientUnits="userSpaceOnUse" id="color-1"><stop offset="0" stop-color="#ffb81f" stop-opacity="0.29839"/><stop offset="1" stop-color="#ffb71f"/></linearGradient><linearGradient x1="261.81057" y1="175.6919" x2="261.81057" y2="181.4919" gradientUnits="userSpaceOnUse" id="color-2"><stop offset="0" stop-color="#ffb81f" stop-opacity="0.29839"/><stop offset="1" stop-color="#ffb71f"/></linearGradient></defs><g transform="translate(-208.77115,-163)"><g data-paper-data="{&quot;isPaintingLayer&quot;:true}" fill-rule="nonzero" stroke="none" stroke-linecap="butt" stroke-linejoin="miter" stroke-miterlimit="10" stroke-dasharray="" stroke-dashoffset="0" style="mix-blend-mode: normal"><path d="M223,180c0,-9.38884 7.61116,-17 17,-17c9.38884,0 17,7.61116 17,17c0,9.38884 -7.61116,17 -17,17c-9.38884,0 -17,-7.61116 -17,-17z" fill="#ffb71f" stroke-width="0.5"/><path d="M224.16667,180c0,-8.74451 7.08883,-15.83333 15.83333,-15.83333c8.74451,0 15.83333,7.08883 15.83333,15.83333c0,8.74451 -7.08883,15.83333 -15.83333,15.83333c-8.74451,0 -15.83333,-7.08883 -15.83333,-15.83333z" fill="#e4a51b" stroke-width="0.5"/><path d="M225.46667,180c0,-8.02654 6.5068,-14.53333 14.53333,-14.53333c8.02654,0 14.53333,6.5068 14.53333,14.53333c0,8.02654 -6.5068,14.53333 -14.53333,14.53333c-8.02654,0 -14.53333,-6.5068 -14.53333,-14.53333z" fill="#f5b11d" stroke-width="0.5"/><path d="M226.5,180c0,-7.45584 6.04416,-13.5 13.5,-13.5c7.45584,0 13.5,6.04416 13.5,13.5c0,7.45584 -6.04416,13.5 -13.5,13.5c-7.45584,0 -13.5,-6.04416 -13.5,-13.5z" fill="#000000" stroke-width="0.5"/><path d="M209.35,181.5c0,0 10.70712,-5.73568 14.2,-5.7c0.05405,0.00055 3.6,-0.1 3.6,-0.1l-10.4,5.8z" fill="url(#color-1)" stroke-width="0"/><path d="M240.05,183.9c0,0 -24.45615,0.67596 -29.87982,0.30496c-2.65101,-0.18134 -0.72018,-2.70496 -0.72018,-2.70496h7.4l23.2,0.2z" fill="#ffb71f" stroke-width="0"/><path d="M263.26057,181.4919l-10.4,-5.8c0,0 3.54595,0.10055 3.6,0.1c3.49288,-0.03567 14.2,5.7 14.2,5.7z" data-paper-data="{&quot;index&quot;:null}" fill="url(#color-2)" stroke-width="0"/><path d="M239.96057,181.6919l23.2,-0.2h7.4c0,0 1.93083,2.52362 -0.72018,2.70496c-5.42367,0.371 -29.87982,-0.30496 -29.87982,-0.30496z" data-paper-data="{&quot;index&quot;:null}" fill="#ffb71f" stroke-width="0"/></g></g></svg>