<svg version="1.1" xmlns="http://www.w3.org/2000/svg" xmlns:xlink="http://www.w3.org/1999/xlink" width="30.69125" height="48.16165" viewBox="0,0,30.69125,48.16165"><defs><linearGradient x1="240" y1="155.91917" x2="240" y2="204.08083" gradientUnits="userSpaceOnUse" id="color-1"><stop offset="0" stop-color="#a3ff30"/><stop offset="1" stop-color="#58fa00"/></linearGradient><linearGradient x1="235.04218" y1="187.43673" x2="235.04218" y2="199.00497" gradientUnits="userSpaceOnUse" id="color-2"><stop offset="0" stop-color="#ff8131"/><stop offset="1" stop-color="#f99e00"/></linearGradient><linearGradient x1="244.95782" y1="187.43673" x2="244.95782" y2="199.00497" gradientUnits="userSpaceOnUse" id="color-3"><stop offset="0" stop-color="#ff8131"/><stop offset="1" stop-color="#f99e00"/></linearGradient><linearGradient x1="235.04219" y1="174.21588" x2="235.04219" y2="185.78412" gradientUnits="userSpaceOnUse" id="color-4"><stop offset="0" stop-color="#ff8131"/><stop offset="1" stop-color="#f99e00"/></linearGradient><linearGradient x1="244.95782" y1="174.21588" x2="244.95782" y2="185.78412" gradientUnits="userSpaceOnUse" id="color-5"><stop offset="0" stop-color="#ff8131"/><stop offset="1" stop-color="#f99e00"/></linearGradient><linearGradient x1="235.04219" y1="160.75895" x2="235.04219" y2="172.32719" gradientUnits="userSpaceOnUse" id="color-6"><stop offset="0" stop-color="#ff8131"/><stop offset="1" stop-color="#f99e00"/></linearGradient><linearGradient x1="244.95782" y1="160.75895" x2="244.95782" y2="172.32719" gradientUnits="userSpaceOnUse" id="color-7"><stop offset="0" stop-color="#ff8131"/><stop offset="1" stop-color="#f99e00"/></linearGradient></defs><g transform="translate(-224.65438,-155.91917)"><g data-paper-data="{&quot;isPaintingLayer&quot;:true}" fill-rule="nonzero" stroke="none" stroke-width="0" stroke-linecap="butt" stroke-linejoin="miter" stroke-miterlimit="10" stroke-dasharray="" stroke-dashoffset="0" style="mix-blend-mode: normal"><path d="M224.65438,204.08083v-48.16165h30.69125v48.16165z" fill="url(#color-1)"/><g><path d="M230.08437,199.00497v-6.84651l9.91563,-4.72173v6.84651z" fill="url(#color-2)"/><path d="M240,194.28324v-6.84651l9.91563,4.72173v6.84651z" data-paper-data="{&quot;index&quot;:null}" fill="url(#color-3)"/></g><g><path d="M230.08437,185.78412v-6.84651l9.91564,-4.72173v6.84651z" fill="url(#color-4)"/><path d="M240,181.06239v-6.84651l9.91564,4.72173v6.84651z" data-paper-data="{&quot;index&quot;:null}" fill="url(#color-5)"/></g><g><path d="M230.08437,172.32719v-6.84651l9.91564,-4.72173v6.84651z" fill="url(#color-6)"/><path d="M240,167.60546v-6.84651l9.91564,4.72173v6.84651z" data-paper-data="{&quot;index&quot;:null}" fill="url(#color-7)"/></g></g></g></svg>