<svg version="1.1" xmlns="http://www.w3.org/2000/svg" xmlns:xlink="http://www.w3.org/1999/xlink" width="47.43936" height="47.43936" viewBox="0,0,47.43936,47.43936"><defs><linearGradient x1="236.04241" y1="166.60432" x2="236.04241" y2="200.904" gradientUnits="userSpaceOnUse" id="color-1"><stop offset="0" stop-color="#4bc3ff" stop-opacity="0.49836"/><stop offset="1" stop-color="#4ac1ff" stop-opacity="0.35484"/></linearGradient></defs><g transform="translate(-216.28032,-156.28034)"><g data-paper-data="{&quot;isPaintingLayer&quot;:true}" fill-rule="nonzero" stroke-linejoin="miter" stroke-miterlimit="10" stroke-dasharray="" stroke-dashoffset="0" style="mix-blend-mode: normal"><path d="M226.23997,203.71969l-1.95608,-1.43822l2.02631,-3.56562l-1.34933,-3.08919l-5.27329,-0.22854l0.21739,-2.04387l-3.62464,-1.36337v-35.71054h47.43936v47.43936z" fill="#1da7ff" stroke="none" stroke-width="0" stroke-linecap="butt"/><path d="M225.97788,195.33262l-0.86761,-3.46744l-0.42613,2.84295l-4.08357,0.22454l0.17511,-1.94343l-1.74334,-0.60523v-33.35168h41.93534v41.93534h-35.99781l5.21996,-1.89032l-3.31927,0.19429l5.37349,-5.92598l-5.19539,3.43729z" fill="#4bc3ff" stroke="none" stroke-width="0" stroke-linecap="butt"/><g><g stroke="#e6db00" stroke-width="0.5"><path d="M240.21693,197.16711c0,0 0.07741,-3.49541 -0.26707,-5.49148c-0.76935,-2.43146 -3.71485,-5.7303 -3.71485,-5.7303l1.93063,-1.93063c0,0 2.12864,2.48355 5.48452,3.6432c1.8347,0.63399 5.73727,0.33872 5.73727,0.33872z" fill="#fff100" stroke-linecap="butt"/><path d="M241.00124,200.36471l-1.93063,-1.93063l11.58377,-11.58377l1.93063,1.93063z" fill="#fff100" stroke-linecap="butt"/><path d="M235.60151,186.51849c0,0 -2.65781,3.35769 -15.5657,-9.53249c-0.05431,-0.05423 9.09944,-9.24102 9.17049,-9.17049c12.55423,12.46208 9.65315,15.44504 9.65315,15.44504z" fill="#fff100" stroke-linecap="butt"/><path d="M231.31644,186.26165c0,0 -8.9158,4.76326 -10.84309,0.25432c-3.75054,-8.77451 1.78618,-6.20724 4.25553,-8.38182" fill="none" stroke-linecap="round"/><path d="M230.442,172.39477c2.17458,-2.46936 -0.39268,-8.00608 8.38182,-4.25553c4.50894,1.92729 -0.25432,10.84309 -0.25432,10.84309" data-paper-data="{&quot;index&quot;:null}" fill="none" stroke-linecap="round"/></g><path d="M233.22676,191.00658l-14.16355,0v-24.40226h33.95839v34.29968h-19.62419z" fill="url(#color-1)" stroke="none" stroke-width="0" stroke-linecap="butt"/></g><path d="M256.81452,202.08156l-2.48991,-2.75201l0.39314,-5.50402l-5.37296,-5.89716l6.15925,-13.62899l-2.88305,0.39314l-1.83468,-2.22781l-2.48991,2.09677l-4.84877,-5.37296l3.53829,-11.13908" fill="none" stroke="#1da7ff" stroke-width="1" stroke-linecap="round"/><path d="M260.87701,185.56953l-4.84877,0.91733l-3.66935,-4.71773" fill="none" stroke="#1da7ff" stroke-width="1" stroke-linecap="round"/><path d="M259.17337,185.96266l2.22782,2.88306" fill="none" stroke="#1da7ff" stroke-width="1" stroke-linecap="round"/><path d="M250.91736,172.59578l1.31049,0.91733l1.70363,-3.0141l-1.31048,-3.66934l1.44152,-4.97982l3.0141,2.09677l2.22781,-5.50402" fill="none" stroke="#1da7ff" stroke-width="1" stroke-linecap="round"/><path d="M261.40119,172.33368l-2.62096,1.83467l-2.62096,-2.62096l1.96572,-2.62096l-0.65524,-5.63507" fill="none" stroke="#1da7ff" stroke-width="1" stroke-linecap="round"/></g></g></svg>