<svg version="1.1" xmlns="http://www.w3.org/2000/svg" xmlns:xlink="http://www.w3.org/1999/xlink" width="61.77355" height="61.77355" viewBox="0,0,61.77355,61.77355"><g transform="translate(-209.11322,-149.11322)"><g data-paper-data="{&quot;isPaintingLayer&quot;:true}" fill-rule="nonzero" stroke-linejoin="miter" stroke-miterlimit="10" stroke-dasharray="" stroke-dashoffset="0" style="mix-blend-mode: normal"><path d="M222.08226,210.88678l-2.54713,-1.87279l2.63857,-4.643l-1.75704,-4.02262l-6.86666,-0.29759l0.28307,-2.66144l-4.71985,-1.77533v-46.50077h61.77355v61.77355z" fill="#1da7ff" stroke="none" stroke-width="0" stroke-linecap="butt"/><path d="M221.74097,199.96549l-1.12977,-4.51515l-0.55489,3.70197l-5.31745,0.29239l0.22802,-2.53065l-2.2701,-0.78811v-43.42916h54.60645v54.60645h-46.87485l6.79722,-2.46149l-4.32222,0.25299l6.99714,-7.71657l-6.76522,4.4759z" fill="#4bc3ff" stroke="none" stroke-width="0" stroke-linecap="butt"/><path d="M249.09676,151.4169l-4.60742,14.50484l6.31387,6.99645l3.24226,-2.73032l2.38904,2.90096l3.75419,-0.51193l-8.02032,17.7471l6.99645,7.67903l-0.51193,7.1671l3.24226,3.58355" fill="none" stroke="#1da7ff" stroke-width="1.5" stroke-linecap="round"/><path d="M256.09322,182.30368l4.77807,6.14323l6.31387,-1.19451" fill="none" stroke="#1da7ff" stroke-width="1.5" stroke-linecap="round"/><path d="M264.96676,187.76432l2.90097,3.7542" fill="none" stroke="#1da7ff" stroke-width="1.5" stroke-linecap="round"/><path d="M265.13741,151.92884l-2.90096,7.1671l-3.92484,-2.73032l-1.87709,6.48451l1.70645,4.77806l-2.21839,3.92484l-1.70646,-1.19451" fill="none" stroke="#1da7ff" stroke-width="1.5" stroke-linecap="round"/><path d="M262.74838,158.24271l0.85323,7.33775l-2.55968,3.4129l3.4129,3.4129l3.4129,-2.38903" fill="none" stroke="#1da7ff" stroke-width="1.5" stroke-linecap="round"/></g></g></svg>