<svg version="1.1" xmlns="http://www.w3.org/2000/svg" xmlns:xlink="http://www.w3.org/1999/xlink" width="62.11688" height="36.90364" viewBox="0,0,62.11688,36.90364"><defs><linearGradient x1="237.73191" y1="179.18978" x2="239.1431" y2="186.81022" gradientUnits="userSpaceOnUse" id="color-1"><stop offset="0" stop-color="#000000"/><stop offset="1" stop-color="#000000" stop-opacity="0"/></linearGradient></defs><g transform="translate(-208.95454,-161.53572)"><g data-paper-data="{&quot;isPaintingLayer&quot;:true}" fill-rule="nonzero" stroke-linejoin="miter" stroke-miterlimit="10" stroke-dasharray="" stroke-dashoffset="0" style="mix-blend-mode: normal"><g stroke="none" stroke-linecap="butt"><path d="M224.27635,195.4375v-30.875h3.875v30.875z" fill="#3ea3d6" stroke-width="0"/><path d="M220.46385,198.4375v-36.75l3.875,2.875v30.875z" data-paper-data="{&quot;index&quot;:null}" fill="#44b3eb" stroke-width="0"/><path d="M210.85086,198.42968c-2.37158,0.07562 -2.66532,-36.85244 0,-36.85935c0.04536,-0.00012 9.60097,0 9.60097,0v36.85935c0,0 -9.53154,-0.00221 -9.60097,0z" fill="#4bc3ff" stroke-width="NaN"/></g><path d="M227.01312,198.4368v-36.85935c0,0 29.20207,-0.00357 29.35097,0c7.96932,0.19111 14.55938,1.6531 14.67549,18.08839c-0.05285,15.638 -6.56379,18.57572 -14.67549,18.77096c-0.23873,0.00575 -29.35097,0 -29.35097,0z" fill="#4bc3ff" stroke="none" stroke-width="NaN" stroke-linecap="butt"/><path d="M246.82143,173.42857l0.85714,2.42857l-1.71429,0.71429l-2.07143,-0.64286l0.14286,3.21429" fill="none" stroke="#1da7ff" stroke-width="0.5" stroke-linecap="round"/><path d="M268.96429,179.78571l1.21429,1.5h0.64286" fill="none" stroke="#1da7ff" stroke-width="0.5" stroke-linecap="round"/><path d="M253.39286,172.5l1.78571,1.71429l-0.35714,1.42857l1.85714,0.64286" fill="none" stroke="#1da7ff" stroke-width="0.5" stroke-linecap="round"/><path d="M255.89583,176.75279c0,-3.78395 3.0675,-6.85145 6.85145,-6.85145c3.78395,0 6.85145,3.0675 6.85145,6.85145c0,3.78395 -3.0675,6.85145 -6.85145,6.85145c-3.78395,0 -6.85145,-3.0675 -6.85145,-6.85145z" fill="#3ea3d6" stroke="none" stroke-width="0.5" stroke-linecap="butt"/><path d="M256.47478,176.22647c0,-3.78395 3.0675,-6.85145 6.85145,-6.85145c3.78395,0 6.85145,3.0675 6.85145,6.85145c0,3.78395 -3.0675,6.85145 -6.85145,6.85145c-3.78395,0 -6.85145,-3.0675 -6.85145,-6.85145z" fill="#ececec" stroke="none" stroke-width="0.5" stroke-linecap="butt"/><path d="M265.16218,179.5791c0,0 -0.81013,1.3623 -2.7288,-0.0295c-1.86765,-1.35479 -0.86658,-2.36742 -0.86658,-2.36742" fill="none" stroke="#c2c2c2" stroke-width="5" stroke-linecap="round"/><path d="M261.85924,176.65295c0,-2.12604 1.7235,-3.84954 3.84954,-3.84954c2.12604,0 3.84955,1.7235 3.84955,3.84954c0,2.12604 -1.72351,3.84955 -3.84955,3.84955c-2.12604,0 -3.84954,-1.72351 -3.84954,-3.84955z" fill="#333333" stroke="none" stroke-width="0.5" stroke-linecap="butt"/><path d="M264.0657,175.08576l-0.43041,0.43042" fill="none" stroke="#5f5f5f" stroke-width="2" stroke-linecap="round"/><path d="M268.74694,172.33646l-8.185,-2.7361" fill="none" stroke="#4bc3ff" stroke-width="1.5" stroke-linecap="round"/><g stroke-width="0.5" stroke-linecap="butt"><path d="M230.375,183.25c0,-4.41827 3.58173,-8 8,-8c4.41827,0 8,3.58173 8,8c0,4.41827 -3.58173,8 -8,8c-4.41827,0 -8,-3.58173 -8,-8z" fill="#8ad8ff" stroke="#41abe0"/><path d="M232.07871,183.25c0,-3.47735 2.81895,-6.29629 6.29629,-6.29629c3.47735,0 6.29629,2.81895 6.29629,6.29629c0,3.47735 -2.81895,6.29629 -6.29629,6.29629c-3.47735,0 -6.29629,-2.81895 -6.29629,-6.29629z" fill="#81caef" stroke="none"/><path d="M233.11574,183.25c0,-2.90461 2.35466,-5.25926 5.25926,-5.25926c2.90461,0 5.25926,2.35466 5.25926,5.25926c0,2.90461 -2.35466,5.25926 -5.25926,5.25926c-2.90461,0 -5.25926,-2.35466 -5.25926,-5.25926z" fill="#5f95b0" stroke="none"/><path d="M234.375,183.25c0,-2.20914 1.79086,-4 4,-4c2.20914,0 4,1.79086 4,4c0,2.20914 -1.79086,4 -4,4c-2.20914,0 -4,-1.79086 -4,-4z" fill="#3a5b6c" stroke="none"/></g><path d="M255.8125,190.5c0,0 -1.93651,2.69193 -20.875,-0.5c-3.13146,-3.44223 4.75,-8.25 4.75,-8.25" fill="none" stroke="#ffffff" stroke-width="4" stroke-linecap="round"/><path d="M234.62728,183.7056c-0.38969,-2.10432 1.0003,-4.12612 3.10462,-4.51581c2.10432,-0.38969 4.12612,1.0003 4.51581,3.10462c0.38969,2.10432 -1.0003,4.12612 -3.10462,4.51581c-2.10432,0.38969 -4.12612,-1.0003 -4.51581,-3.10462z" fill="url(#color-1)" stroke="none" stroke-width="0.5" stroke-linecap="butt"/><path d="" fill="#ffffff" stroke="none" stroke-width="0" stroke-linecap="butt"/><path d="M250,193.61667l0.5,-4.1125c0,0 1.86352,-3.9656 2.45441,-4.30909c1.67804,-0.97546 2.65941,-0.96784 3.39427,-0.94612c1.33845,-0.03556 2.11436,0.35193 2.69487,0.80676c0.33771,0.2646 0.32462,0.64784 0.93941,0.73417c2.54033,0.35673 2.42271,0.35649 2.91137,0.63711c1.15492,0.66324 0.80568,1.42717 0.80568,1.42717c0,0 0.06595,0.67799 -0.15216,1.12342c-0.76938,1.2917 -0.89729,0.34 -0.67646,1.14007c0.09079,0.32894 1.07652,0.83633 1.09394,2.19084c-0.03821,0.76018 -1.21176,1.97222 -1.21653,2.08008c-0.00949,0.21427 0.61851,-0.01167 0.57247,1.78012c0.06533,2.21537 -5.62126,2.03546 -5.62126,2.03546c0,0 -3.09091,-0.31993 -4.31473,-0.82988c-2.74094,-1.1421 -3.38527,-3.82012 -3.38527,-3.82012z" fill="#ffffff" stroke="none" stroke-width="0" stroke-linecap="butt"/><path d="M261.34091,183.86364c0,0 -1.02116,0.12554 -2.54898,-0.84471c-1.28296,-0.81475 -1.58738,-1.56438 -1.58738,-1.56438" fill="none" stroke="#3b9bcc" stroke-width="1.5" stroke-linecap="round"/><path d="M208.95455,176.54545l6.90909,-14.90909h4.63636l3.56814,2.86266l-15.06814,22.18279z" fill-opacity="0.39516" fill="#ffffff" stroke="none" stroke-width="0" stroke-linecap="butt"/><path d="M244.46429,161.78572l-1,3.5l1.71429,2.07143l-4.28572,-0.14286l2.42857,4.07143l1.14285,-1.07143l0.71429,3.07143l1.92857,0.07143l2,-2.14286l2.21428,3.28572l1.85714,-0.57143l0.07143,-3.28572l2.28572,-1.14285l-1.5,-2.28572l2.64285,-0.42857" fill="none" stroke="#1da7ff" stroke-width="0.5" stroke-linecap="round"/><path d="M250.8495,165.56311l1.26004,-4.00247l16.00986,5.04014c0,0 0.53099,1.67878 0.73657,2.54526c0.20477,0.86307 0.49448,2.64344 0.49448,2.64344z" fill="#3fa5d8" stroke="#c2c2c2" stroke-width="0" stroke-linecap="butt"/><path d="M251.60273,165.13011l1.11992,-3.55739l1.59856,0.01407l13.70931,4.581c0,0 0.51033,0.10172 1.31552,2.44c0.7533,2.18757 0.75764,2.7487 0.75764,2.7487z" fill="#3489b4" stroke="#c2c2c2" stroke-width="0" stroke-linecap="butt"/><path d="M252.17857,176.5l0.14286,-1.92857l-0.21429,1.71429" fill="none" stroke="none" stroke-width="0" stroke-linecap="round"/><path d="M209.53571,189.21429l1.42857,1.42857l2.85714,-0.85714v2.28571l-2.14286,0.5l1.85714,1.42857l-1.14286,1.5l1.35714,1.42857l-0.71429,1.21429" fill="none" stroke="#1da7ff" stroke-width="0.5" stroke-linecap="round"/></g></g></svg>