<svg version="1.1" xmlns="http://www.w3.org/2000/svg" xmlns:xlink="http://www.w3.org/1999/xlink" width="45.62663" height="72.44344" viewBox="0,0,45.62663,72.44344"><g transform="translate(-217.18668,-143.27828)"><g data-paper-data="{&quot;isPaintingLayer&quot;:true}" fill-rule="nonzero" stroke-linejoin="miter" stroke-miterlimit="10" stroke-dasharray="" stroke-dashoffset="0" style="mix-blend-mode: normal"><path d="M220.53408,213.51657l2.20515,-40.07408l40.07408,2.20515l-2.20515,40.07408z" fill-opacity="0.34677" fill="#000000" stroke="none" stroke-width="0" stroke-linecap="butt"/><g><path d="M217.18669,209.93309l2.20515,-40.07408l40.07408,2.20515l-2.20515,40.07408z" fill="#46dc00" stroke="none" stroke-width="0" stroke-linecap="butt"/><path d="M221.53896,206.03481l1.75115,-31.82354l31.82354,1.75115l-1.75115,31.82354z" fill="#00ff39" stroke="none" stroke-width="0" stroke-linecap="butt"/><path d="M245.28609,185.99289l8.75241,9.77173l-0.64291,12.11758l-12.00378,-0.56601l-9.64343,-10.76653z" fill="#00ca2c" stroke="none" stroke-width="0" stroke-linecap="butt"/><path d="M229.73562,190.5259c0.26108,-4.74451 4.3189,-8.37905 9.06341,-8.11798c4.74451,0.26108 8.37905,4.3189 8.11798,9.06341c-0.26108,4.74451 -4.3189,8.37905 -9.06341,8.11798c-4.74451,-0.26108 -8.37905,-4.3189 -8.11798,-9.06341z" fill="#f70c0c" stroke="none" stroke-width="0.5" stroke-linecap="butt"/><path d="M239.62361,172.23933l-1.04494,-19.68232l4.89844,1.21532l-0.65979,-9.49405" fill="none" stroke="#000000" stroke-width="2" stroke-linecap="round"/></g></g></g></svg>